<svg xmlns="http://www.w3.org/2000/svg" width="256" height="1536" fill="none" viewBox="0 0 256 1536"><path fill="#121212" d="M102.294 162.026h52.266q3.174 0 5.32-2.146t2.146-5.32v-52.266q0-3.174-2.146-5.321-2.147-2.148-5.32-2.147h-52.266q-3.174 0-5.321 2.147-2.148 2.146-2.147 5.321v52.266q0 3.174 2.147 5.32 2.145 2.146 5.321 2.146m7.466-14.932V109.76h37.334v37.334zm18.666 56q-15.493 0-29.12-5.881-13.625-5.88-23.705-15.96t-15.962-23.707q-5.88-13.625-5.879-29.12 0-15.492 5.88-29.12 5.88-13.625 15.96-23.705t23.706-15.962q13.629-5.88 29.12-5.879 15.495 0 29.12 5.88 13.629 5.88 23.707 15.96t15.96 23.706q5.881 13.628 5.881 29.12 0 15.495-5.881 29.12-5.88 13.629-15.96 23.707t-23.707 15.96q-13.625 5.881-29.12 5.881m0-14.934q24.827 0 42.281-17.453t17.453-42.281q0-24.825-17.453-42.278t-42.281-17.454q-24.825 0-42.278 17.453t-17.454 42.279q-.002 24.827 17.453 42.281 17.453 17.453 42.279 17.453M60.8 372.906q0-9.519 5.507-17.172 5.505-7.654 13.907-10.828 3.359-16.985 16.706-28.092 13.347-11.108 31.08-11.108t31.08 11.108q13.347 11.106 16.706 28.092 8.401 3.175 13.907 10.828t5.507 17.172q0 14.001-9.893 22.215-9.895 8.213-22.213 7.653l-28.187 54.506q-.934 2.054-2.707 2.988a8.1 8.1 0 0 1-3.826.933 8.66 8.66 0 0 1-3.921-.933q-1.866-.935-2.799-2.988L93.28 402.774q-13.255.56-22.867-7.653T60.8 372.906m29.866 14.934q2.8 0 5.507-.933t4.947-3.173l4.106-4.106 4.854 2.986a30 30 0 0 0 8.493 3.919A34.2 34.2 0 0 0 128 387.84a34.2 34.2 0 0 0 9.427-1.307 30 30 0 0 0 8.493-3.919l4.854-2.986 4.106 4.106q2.24 2.24 4.947 3.173t5.507.933q6.16 0 10.546-4.387t4.386-10.547q0-5.599-3.547-9.799-3.545-4.198-9.145-5.133l-5.6-.748-.374-5.972q-.933-12.88-10.641-21.747-9.706-8.867-22.959-8.867t-22.959 8.867q-9.707 8.867-10.641 21.747l-.374 5.972-5.6 1.12q-5.598 1.122-9.145 5.041t-3.547 9.519q0 6.16 4.386 10.547t10.546 4.387m37.709 49.654 20.16-39.2q-4.48 2.24-9.708 3.36a51.6 51.6 0 0 1-10.826 1.12 47.6 47.6 0 0 1-10.173-1.12 48.4 48.4 0 0 1-9.987-3.36zM128 714.853q-2.614 0-5.133-.84a16.6 16.6 0 0 1-4.573-2.333l-6.72-4.854a17 17 0 0 0-4.48-2.333 15.4 15.4 0 0 0-5.041-.84h-8.4q-5.413 0-9.612-3.173-4.2-3.174-5.88-8.214l-2.614-7.84q-.933-2.612-2.427-4.667a16 16 0 0 0-3.546-3.545l-6.72-4.854q-4.294-3.174-5.788-8.214a17.4 17.4 0 0 1 0-10.08l2.427-7.84q.75-2.612.748-5.039 0-2.427-.748-5.041l-2.427-8.027a17.4 17.4 0 0 1 0-10.08q1.494-5.04 5.787-8.212l6.72-4.854a16 16 0 0 0 3.547-3.547q1.494-2.052 2.427-4.667l2.612-7.84q1.683-5.04 5.88-8.212 4.202-3.174 9.614-3.173h8.4a17 17 0 0 0 5.041-.748 15.1 15.1 0 0 0 4.48-2.24l6.72-5.039a16.6 16.6 0 0 1 4.573-2.334 16.13 16.13 0 0 1 10.266 0 16.6 16.6 0 0 1 4.573 2.334l6.72 5.039a15.1 15.1 0 0 0 4.48 2.24q2.427.748 5.041.748h8.399q5.415 0 9.614 3.173t5.879 8.212l2.614 7.84a24.3 24.3 0 0 0 2.334 4.574 13.8 13.8 0 0 0 3.453 3.64l6.72 4.854q4.293 3.171 5.974 8.212 1.68 5.042 0 10.08l-2.614 8.027q-.933 2.614-.933 5.041t.933 5.039l2.614 7.84q1.679 5.042 0 10.08-1.68 5.04-5.974 8.214l-6.72 4.854a13.7 13.7 0 0 0-3.453 3.639 24.3 24.3 0 0 0-2.334 4.573l-2.614 7.84q-1.679 5.04-5.879 8.214t-9.614 3.173h-8.399q-2.614 0-5.041.84a17 17 0 0 0-4.48 2.333l-6.72 4.854a16.6 16.6 0 0 1-4.573 2.333c-1.654.556-3.388.84-5.133.84m-1.12-134.213q-1.68 1.305-3.36 2.427a56 56 0 0 0-3.36 2.427 28.2 28.2 0 0 1-8.68 4.48 32 32 0 0 1-9.613 1.492h-8.401q-.376 0-.748.281a1.86 1.86 0 0 0-.56.652 61 61 0 0 0-1.305 4.014 60 60 0 0 1-1.308 4.013 32.3 32.3 0 0 1-4.293 8.68 26.6 26.6 0 0 1-6.907 6.813q-1.657 1.29-3.36 2.521a118 118 0 0 0-3.36 2.52 2.9 2.9 0 0 0-.56.746.8.8 0 0 0 0 .748 58 58 0 0 0 1.214 3.919 58 58 0 0 1 1.214 3.921q1.492 4.85 1.492 9.706 0 4.852-1.492 9.706a59 59 0 0 1-1.214 3.921 59 59 0 0 0-1.213 3.919q-.188.373 0 .84.186.466.559.841a58 58 0 0 0 3.36 2.427q1.68 1.121 3.36 2.425a33 33 0 0 1 6.813 7.001 30.7 30.7 0 0 1 4.387 8.679 70 70 0 0 1 1.307 3.921q.561 1.867 1.307 3.919.185.375.652.654.468.28.841.281h8.213q5.04 0 9.707 1.492 4.666 1.494 8.774 4.48 1.678 1.307 3.36 2.521 1.68 1.213 3.36 2.52.184.186.933.093l.746-.093q1.657-1.29 3.36-2.52a120 120 0 0 0 3.36-2.521 36.2 36.2 0 0 1 8.773-4.386 29.4 29.4 0 0 1 9.521-1.586h8.399q.373 0 .748-.281a1.85 1.85 0 0 0 .559-.654 73 73 0 0 0 1.307-3.919 73 73 0 0 1 1.307-3.921q1.494-4.85 4.386-8.773 2.893-3.92 7.001-6.907 1.68-1.305 3.36-2.425a58 58 0 0 0 3.36-2.427q.372-.375.559-.841t0-.84a73 73 0 0 1-1.307-3.919 71 71 0 0 0-1.306-3.921q-1.493-4.854-1.493-9.706t1.493-9.706q.747-2.055 1.306-3.921.56-1.867 1.12-3.919a.8.8 0 0 0 0-.748 3 3 0 0 0-.559-.746 56 56 0 0 1-3.36-2.427l-3.36-2.614a34.2 34.2 0 0 1-6.814-6.905 29.4 29.4 0 0 1-4.386-8.588 59 59 0 0 1-1.307-4.013 61 61 0 0 0-1.307-4.014q-.186-.372-.653-.652-.466-.28-.84-.281h-8.213q-5.041 0-9.707-1.492-4.667-1.494-8.774-4.48a118 118 0 0 0-3.36-2.521 110 110 0 0 0-3.36-2.333 1.152 1.152 0 0 0-.84-.374 1.15 1.15 0 0 0-.838.374m1.865 91.653q5.415 5.6 13.253 5.6 7.842 0 13.44-5.6l2.614-2.614q2.24-2.24 2.24-5.319 0-3.08-2.24-5.32t-5.226-2.147q-2.988.093-5.228 2.147l-2.799 2.614q-1.12 1.12-2.614 1.12t-2.613-1.12q-1.12-1.12-1.12-2.614t1.12-2.614l15.866-15.867q5.415-5.412 5.414-13.159 0-7.749-5.414-13.16-5.412-5.415-13.253-5.413-7.84 0-13.253 5.413l-21.092 21.093q-1.12 1.12-2.614 1.12t-2.612-1.12q-1.119-1.12-1.12-2.614t1.12-2.612l13.253-13.253q2.053-2.055 2.053-5.134t-2.053-5.32q-2.241-2.24-5.32-2.24t-5.321 2.24L92.16 619.466q-5.6 5.415-5.507 13.253.096 7.842 5.507 13.255 5.415 5.412 13.16 5.413 7.745 0 13.159-5.413l21.095-21.28q1.12-1.12 2.612-1.12 1.494 0 2.614 1.12 1.12 1.119 1.12 2.706a3.7 3.7 0 0 1-1.12 2.707l-15.68 15.867q-5.415 5.412-5.6 13.159-.186 7.747 5.225 13.16m-11.196 298.373q-9.521 0-14.467-5.693-4.947-5.692-4.947-12.973 0-4.854 2.147-9.427t6.626-7.56c2.696-1.701 4.964-4 6.627-6.72a26.6 26.6 0 0 0 3.453-8.773l-2.24-1.12a11.5 11.5 0 0 1-2.053-1.307l-17.174 6.161a69 69 0 0 1-6.16 1.866 25.4 25.4 0 0 1-6.16.746q-11.76 0-20.812-10.267-9.054-10.265-9.054-30.053 0-9.519 5.694-14.466 5.691-4.947 12.787-4.946 4.851 0 9.519 2.146 4.667 2.146 7.654 6.627c1.701 2.696 4 4.963 6.72 6.626a26.6 26.6 0 0 0 8.772 3.454l1.12-2.24c.362-.729.8-1.417 1.307-2.053l-6.159-17.174a68 68 0 0 1-1.868-6.161 24.6 24.6 0 0 1-.746-5.972q0-11.947 10.266-21.001 10.266-9.052 30.054-9.052 9.52 0 14.467 5.692 4.946 5.694 4.947 12.787 0 4.854-2.147 9.521t-6.628 7.653a20.7 20.7 0 0 0-6.626 6.72 26.6 26.6 0 0 0-3.454 8.773l2.24 1.12c.729.362 1.418.8 2.055 1.307l17.172-6.348a54 54 0 0 1 6.067-1.772 27.4 27.4 0 0 1 6.066-.653q15.121 0 22.587 12.505 7.467 12.506 7.468 27.815 0 9.519-5.974 14.466-5.973 4.947-13.253 4.946-4.666 0-9.054-2.146-4.386-2.146-7.374-6.627a20.7 20.7 0 0 0-6.72-6.626 26.6 26.6 0 0 0-8.773-3.454l-1.12 2.24c-.362.729-.8 1.417-1.307 2.053l6.161 17.174a68 68 0 0 1 1.866 5.693q.748 2.706.748 5.694.186 12.131-10.08 21.467-10.269 9.332-30.24 9.332M128 907.2q4.668 0 7.933-3.267T139.2 896q0-4.668-3.267-7.933T128 884.8q-4.665 0-7.933 3.267T116.8 896q0 4.665 3.267 7.933T128 907.2m-8.586-35.84a25 25 0 0 1 2.333-.654 40 40 0 0 1 2.334-.466 42.1 42.1 0 0 1 5.693-14.56q4.2-6.72 11.107-11.2a5.5 5.5 0 0 0 1.492-1.866q.561-1.122.561-2.801 0-1.494-1.12-2.52t-3.36-1.027q-7.093 0-16.054 3.08t-9.333 12.041q0 1.679.466 3.173t.841 2.799zM83.2 910.934q2.614 0 6.16-1.307l14-5.041a26 26 0 0 1-.653-2.333 39 39 0 0 1-.467-2.334 42.1 42.1 0 0 1-14.56-5.693q-6.72-4.198-11.2-11.107-.747-.934-1.958-1.492-1.217-.561-2.708-.561-1.68 0-2.613 1.12-.935 1.122-.935 3.36 0 10.08 3.827 17.733 3.828 7.655 11.107 7.655m34.347 44.8q8.775 0 17.266-3.547 8.495-3.548 8.121-12.32a8.3 8.3 0 0 0-.467-2.801 116 116 0 0 1-.84-2.427l-5.04-13.999a26 26 0 0 1-2.333.653q-1.214.281-2.333.467a42.1 42.1 0 0 1-5.694 14.56q-4.2 6.72-11.106 11.2-.934.746-1.588 1.96a4 4 0 0 0-.466 2.52 4.97 4.97 0 0 0 1.12 2.614q.933 1.12 3.36 1.12m65.894-44.8q1.68 0 2.986-.935 1.307-.933 1.307-3.545 0-7.094-2.987-16.147-2.985-9.054-12.134-9.241-1.679 0-3.173.374-1.493.372-2.799.746l-14.001 5.228a26 26 0 0 1 .654 2.332q.28 1.214.466 2.333a42.1 42.1 0 0 1 14.56 5.694q6.72 4.2 11.2 11.106.56.933 1.681 1.494 1.118.561 2.24.561m-62.906 540.736-19.226 18.86c-1.37 1.37-3.08 2.06-5.134 2.06-2.053 0-3.764-.76-5.132-2.24-1.494-1.37-2.24-3.09-2.24-5.13 0-2.06.746-3.83 2.24-5.33l29.492-29.49v-14.94h-14.934l-29.68 29.69c-1.369 1.37-3.079 2.04-5.132 2.04-2.054 0-3.827-.74-5.32-2.24-1.37-1.35-2.054-3.07-2.054-5.13q0-3.075 2.053-5.13l18.855-19.23H60.614c-2.115 0-3.857-.71-5.227-2.14s-2.053-3.21-2.053-5.32.715-3.89 2.146-5.32 3.205-2.14 5.32-2.14h23.52l-18.853-19.05c-1.37-1.37-2.053-3.07-2.053-5.13 0-2.05.746-3.83 2.24-5.33 1.37-1.35 3.08-2.04 5.133-2.04s3.827.69 5.32 2.04l29.493 29.51h14.934v-14.94l-29.68-29.49c-1.37-1.37-2.054-3.09-2.054-5.13 0-2.06.748-3.83 2.24-5.33 1.37-1.37 3.08-2.05 5.133-2.05s3.766.68 5.134 2.05l19.227 18.66v-23.51c0-2.11.715-3.89 2.146-5.32s3.205-2.14 5.32-2.14 3.889.71 5.321 2.14 2.146 3.21 2.146 5.32v23.51l19.04-18.66c1.369-1.37 3.08-2.05 5.133-2.05s3.827.68 5.32 2.05c1.37 1.5 2.053 3.27 2.053 5.33 0 2.04-.683 3.76-2.053 5.13l-29.493 29.49v14.94H150.4l29.494-29.51c1.368-1.35 3.079-2.04 5.133-2.04s3.827.74 5.32 2.24q2.054 2.055 2.054 5.13c0 2.06-.685 3.76-2.054 5.13l-18.667 19.05h23.52c2.116 0 3.889.71 5.321 2.14s2.146 3.21 2.146 5.32-.715 3.89-2.146 5.32-3.205 2.14-5.321 2.14h-23.52l18.667 19.23q2.054 2.055 2.054 5.13c0 2.06-.685 3.78-2.054 5.13-1.493 1.5-3.266 2.24-5.32 2.24s-3.765-.74-5.133-2.24l-29.494-29.49h-14.933v14.94l29.493 29.68c1.37 1.37 2.053 3.08 2.053 5.14 0 2.04-.746 3.82-2.24 5.31-1.368 1.37-3.08 2.06-5.133 2.06s-3.764-.69-5.133-2.06l-19.04-18.86v23.72q0 3.165-2.146 5.22c-1.432 1.37-3.205 2.05-5.321 2.05s-3.889-.71-5.32-2.14-2.146-3.21-2.146-5.32zM128 1140.8c-8.213 0-15.866-1.52-22.959-4.57q-10.64-4.575-18.855-12.6l13.44-8.03a44 44 0 0 0 9.708 6.16q5.226 2.43 11.2 3.36v-39.57l7.466-4.48 7.466 4.48v39.57q5.974-.93 11.2-3.36a44 44 0 0 0 9.708-6.16l13.44 8.03q-8.214 8.025-18.855 12.6c-7.093 3.05-14.746 4.57-22.959 4.57m-9.147 70-13.812-7.28q.372-1.68.466-3.36.093-1.68.093-3.36 0-4.29-.746-8.49a40.3 40.3 0 0 0-2.24-7.94l-34.16 20.54-7.654-4.11v-8.77l33.974-20.35a46 46 0 0 0-8.588-7.65 46.3 46.3 0 0 0-10.452-5.42v-15.68q19.412 5.04 32.106 21t12.694 36.87c0 2.49-.125 4.88-.374 7.19-.248 2.3-.684 4.58-1.306 6.81m18.294 0a42 42 0 0 1-1.307-6.81 67 67 0 0 1-.374-7.19q0-20.91 12.694-36.87t32.106-21v15.68a45.8 45.8 0 0 0-10.452 5.42 46 46 0 0 0-8.588 7.65l33.974 20.35v8.77l-7.653 4.11-34.161-20.54a40.3 40.3 0 0 0-2.24 7.94 48.6 48.6 0 0 0-.747 8.49q0 1.68.093 3.36.094 1.68.466 3.36z"/></svg>